<svg aria-hidden="true" style="position: absolute; width: 0; height: 0; overflow: hidden;" version="1.1" xmlns="http://www.w3.org/2000/svg" xmlns:xlink="http://www.w3.org/1999/xlink">
<defs>
<symbol id="icon-item-3" viewBox="0 0 32 32">
<path fill="#edfffc" style="fill: var(--color1, #edfffc)" d="M32 16c0 8.837-7.163 16-16 16s-16-7.163-16-16c0-8.837 7.163-16 16-16s16 7.163 16 16z"></path>
<path fill="none" stroke="#02897a" style="stroke: var(--color2, #02897a)" stroke-linejoin="round" stroke-linecap="round" stroke-miterlimit="4" stroke-width="1.6" d="M24.8 8.808c-0.766 0.54-1.614 0.954-2.512 1.224-0.482-0.554-1.122-0.947-1.834-1.125s-1.462-0.133-2.148 0.128c-0.686 0.262-1.275 0.728-1.687 1.335s-0.628 1.327-0.618 2.061v0.8c-1.406 0.036-2.799-0.275-4.055-0.908s-2.337-1.565-3.145-2.716c0 0-3.2 7.2 4 10.4-1.648 1.118-3.61 1.679-5.6 1.6 7.2 4 16 0 16-9.2-0.001-0.223-0.022-0.445-0.064-0.664 0.816-0.805 1.393-1.822 1.664-2.936v0z"></path>
</symbol>
<symbol id="icon-item-2" viewBox="0 0 32 32">
<path fill="#edfffc" style="fill: var(--color1, #edfffc)" d="M32 16c0 8.837-7.163 16-16 16s-16-7.163-16-16c0-8.837 7.163-16 16-16s16 7.163 16 16z"></path>
<path fill="none" stroke="#02897a" style="stroke: var(--color2, #02897a)" stroke-linejoin="round" stroke-linecap="round" stroke-miterlimit="4" stroke-width="1.6" d="M20.8 8h-2.4c-1.061 0-2.078 0.421-2.828 1.172s-1.172 1.768-1.172 2.828v2.4h-2.4v3.2h2.4v6.4h3.2v-6.4h2.4l0.8-3.2h-3.2v-2.4c0-0.212 0.084-0.416 0.234-0.566s0.354-0.234 0.566-0.234h2.4v-3.2z"></path>
</symbol>
<symbol id="icon-item-1" viewBox="0 0 32 32">
<path fill="#edfffc" style="fill: var(--color1, #edfffc)" d="M32 16c0 8.837-7.163 16-16 16s-16-7.163-16-16c0-8.837 7.163-16 16-16s16 7.163 16 16z"></path>
<path fill="none" stroke="#02897a" style="stroke: var(--color2, #02897a)" stroke-linejoin="round" stroke-linecap="round" stroke-miterlimit="4" stroke-width="1.6" d="M20 8h-8c-2.209 0-4 1.791-4 4v8c0 2.209 1.791 4 4 4h8c2.209 0 4-1.791 4-4v-8c0-2.209-1.791-4-4-4z"></path>
<path fill="none" stroke="#02897a" style="stroke: var(--color2, #02897a)" stroke-linejoin="round" stroke-linecap="round" stroke-miterlimit="4" stroke-width="1.6" d="M19.2 15.496c0.099 0.666-0.015 1.346-0.325 1.943s-0.8 1.082-1.402 1.385c-0.601 0.303-1.283 0.408-1.947 0.301s-1.278-0.421-1.754-0.897-0.79-1.090-0.897-1.754c-0.107-0.664-0.002-1.346 0.301-1.947s0.787-1.092 1.384-1.402 1.277-0.424 1.943-0.325c0.679 0.101 1.308 0.417 1.793 0.903s0.802 1.114 0.903 1.793z"></path>
<path fill="none" stroke="#02897a" style="stroke: var(--color2, #02897a)" stroke-linejoin="round" stroke-linecap="round" stroke-miterlimit="4" stroke-width="1.6" d="M20.4 11.6h0.008"></path>
</symbol>
</defs>
</svg>
